HIERARCHY
ROOT Hips
{
  OFFSET 5.80788e-005 67.184 3.4734
  CHANNELS 6 Xposition Yposition Zposition Zrotation Xrotation Yrotation
  JOINT Chest
  {
    OFFSET 0 8.7983 -4.7612
    CHANNELS 6 Xposition Yposition Zposition Zrotation Xrotation Yrotation
    JOINT Chest2
    {
      OFFSET 0 8.0291 0.4195
      CHANNELS 6 Xposition Yposition Zposition Zrotation Xrotation Yrotation
      JOINT Chest3
      {
        OFFSET 0 9.9351 -2.2114
        CHANNELS 6 Xposition Yposition Zposition Zrotation Xrotation Yrotation
        JOINT Neck
        {
          OFFSET 0 22.3885 -0.4656
          CHANNELS 6 Xposition Yposition Zposition Zrotation Xrotation Yrotation
          JOINT Head
          {
            OFFSET -0.0001 12.643 3.4389
            CHANNELS 6 Xposition Yposition Zposition Zrotation Xrotation Yrotation
            End Site
            {
              OFFSET 0.0001 17.6655 0.5274
            }
          }
        }
        JOINT LeftCollar
        {
          OFFSET 2.2603 21.606 7.4023
          CHANNELS 6 Xposition Yposition Zposition Zrotation Xrotation Yrotation
          JOINT LeftShoulder
          {
            OFFSET 13.5163 -1.1332 -5.0146
            CHANNELS 6 Xposition Yposition Zposition Zrotation Xrotation Yrotation
            JOINT LeftElbow
            {
              OFFSET -0.0995 -28.05 -0.2431
              CHANNELS 6 Xposition Yposition Zposition Zrotation Xrotation Yrotation
              JOINT LeftWrist
              {
                OFFSET 0.0679 -23.3996 -0.1402
                CHANNELS 6 Xposition Yposition Zposition Zrotation Xrotation Yrotation
                JOINT LeftFinger1
                {
                  OFFSET 0.7932 -9.069 2.5189
                  CHANNELS 6 Xposition Yposition Zposition Zrotation Xrotation Yrotation
                  JOINT LeftFinger11
                  {
                    OFFSET -0.8272 -3.3923 0.5977
                    CHANNELS 6 Xposition Yposition Zposition Zrotation Xrotation Yrotation
                    JOINT LeftFinger12
                    {
                      OFFSET -0.5649 -2.3158 0.4082
                      CHANNELS 6 Xposition Yposition Zposition Zrotation Xrotation Yrotation
                      End Site
                      {
                        OFFSET -0.4919 -1.6479 0.2673
                      }
                    }
                  }
                }
                JOINT LeftFinger2
                {
                  OFFSET 0.9159 -9.2044 0.2193
                  CHANNELS 6 Xposition Yposition Zposition Zrotation Xrotation Yrotation
                  JOINT LeftFinger21
                  {
                    OFFSET 0.0117 -4.1944 -0.0248
                    CHANNELS 6 Xposition Yposition Zposition Zrotation Xrotation Yrotation
                    JOINT LeftFinger22
                    {
                      OFFSET 0.0071 -2.3249 -0.0142
                      CHANNELS 6 Xposition Yposition Zposition Zrotation Xrotation Yrotation
                      End Site
                      {
                        OFFSET -0.1475 -2.0882 0.0028
                      }
                    }
                  }
                }
                JOINT LeftFinger3
                {
                  OFFSET 0.6113 -8.7231 -2.0637
                  CHANNELS 6 Xposition Yposition Zposition Zrotation Xrotation Yrotation
                  JOINT LeftFinger31
                  {
                    OFFSET -0.1927 -3.8059 -0.2383
                    CHANNELS 6 Xposition Yposition Zposition Zrotation Xrotation Yrotation
                    JOINT LeftFinger32
                    {
                      OFFSET -0.1091 -2.1688 -0.1362
                      CHANNELS 6 Xposition Yposition Zposition Zrotation Xrotation Yrotation
                      End Site
                      {
                        OFFSET -0.2358 -1.9176 -0.0906
                      }
                    }
                  }
                }
                JOINT LeftFinger4
                {
                  OFFSET -0.6151 -8.0947 -3.5641
                  CHANNELS 6 Xposition Yposition Zposition Zrotation Xrotation Yrotation
                  JOINT LeftFinger41
                  {
                    OFFSET -0.4882 -2.341 -0.6462
                    CHANNELS 6 Xposition Yposition Zposition Zrotation Xrotation Yrotation
                    JOINT LeftFinger42
                    {
                      OFFSET -0.3575 -1.7167 -0.4742
                      CHANNELS 6 Xposition Yposition Zposition Zrotation Xrotation Yrotation
                      End Site
                      {
                        OFFSET -0.4187 -1.5237 -0.3496
                      }
                    }
                  }
                }
                JOINT LeftFinger0
                {
                  OFFSET -1.42 -1.8761 1.4223
                  CHANNELS 6 Xposition Yposition Zposition Zrotation Xrotation Yrotation
                  JOINT LeftFinger01
                  {
                    OFFSET -1.1471 -3.4929 2.6334
                    CHANNELS 6 Xposition Yposition Zposition Zrotation Xrotation Yrotation
                    JOINT LeftFinger02
                    {
                      OFFSET -0.823 -2.3 1.6571
                      CHANNELS 6 Xposition Yposition Zposition Zrotation Xrotation Yrotation
                      End Site
                      {
                        OFFSET -0.5822 -1.6914 1.1582
                      }
                    }
                  }
                }
              }
            }
          }
        }
        JOINT RightCollar
        {
          OFFSET -2.2603 21.606 7.4023
          CHANNELS 6 Xposition Yposition Zposition Zrotation Xrotation Yrotation
          JOINT RightShoulder
          {
            OFFSET -13.5187 -1.1334 -5.0155
            CHANNELS 6 Xposition Yposition Zposition Zrotation Xrotation Yrotation
            JOINT RightElbow
            {
              OFFSET 0.0994 -28.0499 -0.2431
              CHANNELS 6 Xposition Yposition Zposition Zrotation Xrotation Yrotation
              JOINT RightWrist
              {
                OFFSET -0.0679 -23.3996 -0.1402
                CHANNELS 6 Xposition Yposition Zposition Zrotation Xrotation Yrotation
                JOINT RightFinger1
                {
                  OFFSET -0.7932 -9.0691 2.5189
                  CHANNELS 6 Xposition Yposition Zposition Zrotation Xrotation Yrotation
                  JOINT RightFinger11
                  {
                    OFFSET 0.8272 -3.3923 0.5977
                    CHANNELS 6 Xposition Yposition Zposition Zrotation Xrotation Yrotation
                    JOINT RightFinger12
                    {
                      OFFSET 0.565 -2.3158 0.4082
                      CHANNELS 6 Xposition Yposition Zposition Zrotation Xrotation Yrotation
                      End Site
                      {
                        OFFSET 0.4919 -1.6479 0.2673
                      }
                    }
                  }
                }
                JOINT RightFinger2
                {
                  OFFSET -0.916 -9.2044 0.2193
                  CHANNELS 6 Xposition Yposition Zposition Zrotation Xrotation Yrotation
                  JOINT RightFinger21
                  {
                    OFFSET -0.0117 -4.1944 -0.0248
                    CHANNELS 6 Xposition Yposition Zposition Zrotation Xrotation Yrotation
                    JOINT RightFinger22
                    {
                      OFFSET -0.0071 -2.3249 -0.0142
                      CHANNELS 6 Xposition Yposition Zposition Zrotation Xrotation Yrotation
                      End Site
                      {
                        OFFSET 0.1475 -2.0882 0.0028
                      }
                    }
                  }
                }
                JOINT RightFinger3
                {
                  OFFSET -0.6113 -8.7231 -2.0637
                  CHANNELS 6 Xposition Yposition Zposition Zrotation Xrotation Yrotation
                  JOINT RightFinger31
                  {
                    OFFSET 0.1927 -3.8059 -0.2383
                    CHANNELS 6 Xposition Yposition Zposition Zrotation Xrotation Yrotation
                    JOINT RightFinger32
                    {
                      OFFSET 0.1091 -2.1688 -0.1362
                      CHANNELS 6 Xposition Yposition Zposition Zrotation Xrotation Yrotation
                      End Site
                      {
                        OFFSET 0.2358 -1.9176 -0.0906
                      }
                    }
                  }
                }
                JOINT RightFinger4
                {
                  OFFSET 0.6151 -8.0947 -3.564
                  CHANNELS 6 Xposition Yposition Zposition Zrotation Xrotation Yrotation
                  JOINT RightFinger41
                  {
                    OFFSET 0.4882 -2.341 -0.6462
                    CHANNELS 6 Xposition Yposition Zposition Zrotation Xrotation Yrotation
                    JOINT RightFinger42
                    {
                      OFFSET 0.3574 -1.7166 -0.4742
                      CHANNELS 6 Xposition Yposition Zposition Zrotation Xrotation Yrotation
                      End Site
                      {
                        OFFSET 0.4187 -1.5237 -0.3496
                      }
                    }
                  }
                }
                JOINT RightFinger0
                {
                  OFFSET 1.4199 -1.8761 1.4221
                  CHANNELS 6 Xposition Yposition Zposition Zrotation Xrotation Yrotation
                  JOINT RightFinger01
                  {
                    OFFSET 1.1472 -3.4929 2.6336
                    CHANNELS 6 Xposition Yposition Zposition Zrotation Xrotation Yrotation
                    JOINT RightFinger02
                    {
                      OFFSET 0.8229 -2.3 1.6571
                      CHANNELS 6 Xposition Yposition Zposition Zrotation Xrotation Yrotation
                      End Site
                      {
                        OFFSET 0.5822 -1.6914 1.1582
                      }
                    }
                  }
                }
              }
            }
          }
        }
      }
    }
  }
  JOINT RightHip
  {
    OFFSET -9.412 3.9771 -0.7758
    CHANNELS 6 Xposition Yposition Zposition Zrotation Xrotation Yrotation
    JOINT RightKnee
    {
      OFFSET -0.7531 -40.938 0
      CHANNELS 6 Xposition Yposition Zposition Zrotation Xrotation Yrotation
      JOINT RightAnkle
      {
        OFFSET 0 -40.1986 0
        CHANNELS 6 Xposition Yposition Zposition Zrotation Xrotation Yrotation
        JOINT RightToe
        {
          OFFSET 0 -4.4182 9.239
          CHANNELS 6 Xposition Yposition Zposition Zrotation Xrotation Yrotation
          End Site
          {
            OFFSET 0 0 6.1981
          }
        }
      }
    }
  }
  JOINT LeftHip
  {
    OFFSET 9.4119 3.9773 -0.7758
    CHANNELS 6 Xposition Yposition Zposition Zrotation Xrotation Yrotation
    JOINT LeftKnee
    {
      OFFSET 0.7532 -40.9383 0
      CHANNELS 6 Xposition Yposition Zposition Zrotation Xrotation Yrotation
      JOINT LeftAnkle
      {
        OFFSET 0 -40.1986 0
        CHANNELS 6 Xposition Yposition Zposition Zrotation Xrotation Yrotation
        JOINT LeftToe
        {
          OFFSET 0 -4.4182 9.239
          CHANNELS 6 Xposition Yposition Zposition Zrotation Xrotation Yrotation
          End Site
          {
            OFFSET 0 0 6.1981
          }
        }
      }
    }
  }
}
MOTION
Frames:	4
Frame Time:	0.0333333
-0.0280261 5.41762 79.1079 -180 -85.9956 -180 -6.9389e-018 8.7983 -4.7612 -0.0028819 0.832792 -0.0889497 0 8.0291 0.4195 -0.00447133 1.66562 -0.177886 3.46945e-018 9.9351 -2.2114 -0.00447134 1.66562 -0.177887 -6.93889e-018 22.3885 -0.4656 -3.36588e-006 14.6003 1.59367e-005 -0.0001 12.643 3.4389 9.53978e-008 -4.02563 -1.38037e-007 2.2603 21.606 7.4023 -0.0365206 -12.6924 -13.5173 13.5163 -1.1332 -5.0146 6.51069 0.687181 22.432 -0.0995 -28.05 -0.2431 -6.23302 -44.7787 -3.05794 0.0679 -23.3996 -0.1402 -16.6203 17.0543 7.25442 0.7932 -9.069 2.5189 -8.82781e-032 -3.18055e-015 -1.59028e-015 -0.8272 -3.3923 0.5977 1.76556e-031 6.36111e-015 -1.59028e-015 -0.5649 -2.3158 0.4082 -3.18055e-015 3.18055e-015 -0 0.9159 -9.2044 0.2193 -8.82781e-032 -3.18055e-015 -1.59028e-015 0.0117 -4.1944 -0.0248 -0.0128212 0.00233513 8.94621e-005 0.0071 -2.3249 -0.0142 -4.77083e-015 0 1.59028e-015 0.6113 -8.7231 -2.0637 -8.82781e-032 -3.18055e-015 -1.59028e-015 -0.1927 -3.8059 -0.2383 -0.0160122 0.00298715 0.000857354 -0.1091 -2.1688 -0.1362 -3.18055e-015 -6.36111e-015 -0 -0.6151 -8.0947 -3.5641 -8.82781e-032 -3.18055e-015 -1.59028e-015 -0.4882 -2.341 -0.6462 -0.0125608 0.00311826 0.00281906 -0.3575 -1.7167 -0.4742 -0 -1.27222e-014 -0 -1.42 -1.8761 1.4223 -8.82781e-032 -3.18055e-015 -1.59028e-015 -1.1471 -3.4929 2.6334 1.76556e-031 6.36111e-015 -1.59028e-015 -0.823 -2.3 1.6571 -3.18055e-015 3.18055e-015 -0 -2.2603 21.606 7.4023 -3.42821 -4.33545 3.16364 -13.5187 -1.1334 -5.0155 -1.67608 2.7936 -16.1303 0.0994 -28.0499 -0.2431 33.2383 -62.5106 25.1476 -0.0679 -23.3996 -0.1402 13.3801 9.46826 -2.72414 -0.7932 -9.0691 2.5189 -6.94608e-007 -4.59098e-006 6.63583e-007 0.8272 -3.3923 0.5977 1.42296e-005 6.39148e-006 2.2394e-006 0.565 -2.3158 0.4082 7.40564e-006 -5.77555e-006 1.20191e-006 -0.916 -9.2044 0.2193 -6.94608e-007 -4.59098e-006 6.63583e-007 -0.0117 -4.1944 -0.0248 0.0129452 0.00231073 -8.8646e-005 -0.0071 -2.3249 -0.0142 6.56336e-006 2.64109e-006 2.08075e-006 -0.6113 -8.7231 -2.0637 -6.94608e-007 -4.59098e-006 6.63583e-007 0.1927 -3.8059 -0.2383 0.0163565 0.00303607 -0.000868642 0.1091 -2.1688 -0.1362 -1.76533e-006 4.34824e-006 -3.15513e-006 0.6151 -8.0947 -3.564 -6.94608e-007 -4.59098e-006 6.63583e-007 0.4882 -2.341 -0.6462 0.0145973 0.00368212 -0.00326381 0.3574 -1.7166 -0.4742 -7.95139e-016 1.27222e-014 -0 1.4199 -1.8761 1.4221 -6.94608e-007 -4.59098e-006 6.63583e-007 1.1472 -3.4929 2.6336 1.42296e-005 6.39148e-006 2.2394e-006 0.8229 -2.3 1.6571 7.40564e-006 -5.77555e-006 1.20191e-006 -9.412 3.9771 -0.7758 -83.2667 -64.3151 -120.017 -0.7531 -40.938 0 149.062 51.0236 -149.173 -1.42109e-014 -40.1986 1.42109e-014 -14.0643 7.89927 15.1425 0 -4.4182 9.239 -3.18055e-015 3.18055e-015 -1.59028e-015 9.4119 3.9773 -0.7758 76.3184 -65.9479 112.501 0.7532 -40.9383 0 -132.404 55.1437 135.242 0 -40.1986 0 13.9449 8.26524 -15.6858 0 -4.4182 9.239 -1.32764e-005 -3.07882e-005 -5.6603e-007 
-0.0289759 5.41764 79.1078 -180 -85.9956 -180 3.46945e-018 8.7983 -4.7612 -0.00287031 0.82275 -0.0889748 0 8.0291 0.4195 -0.00446333 1.6455 -0.177935 0 9.9351 -2.2114 -0.00446333 1.64547 -0.177935 0 22.3885 -0.4656 -6.70883e-006 15.2023 3.03585e-005 -0.0001 12.643 3.4389 -7.57611e-008 -3.5496 -1.01746e-007 2.2603 21.606 7.4023 -0.457396 -12.8642 -13.8263 13.5163 -1.1332 -5.0146 6.90729 0.653182 22.4693 -0.0995 -28.05 -0.2431 -5.95127 -44.5316 -2.84215 0.0679 -23.3996 -0.1402 -16.6203 17.0542 7.25443 0.7932 -9.069 2.5189 -3.18055e-015 0 -1.59028e-015 -0.8272 -3.3923 0.5977 -3.18055e-015 -6.36111e-015 1.59028e-015 -0.5649 -2.3158 0.4082 -1.59028e-015 3.18055e-015 1.59028e-015 0.9159 -9.2044 0.2193 -3.18055e-015 0 -1.59028e-015 0.0117 -4.1944 -0.0248 -0.0128362 0.00232875 7.44709e-005 0.0071 -2.3249 -0.0142 5.63465e-006 8.76428e-007 3.12314e-006 0.6113 -8.7231 -2.0637 -3.18055e-015 0 -1.59028e-015 -0.1927 -3.8059 -0.2383 -0.0160521 0.00299603 0.000859376 -0.1091 -2.1688 -0.1362 3.18055e-015 3.18055e-015 4.77083e-015 -0.6151 -8.0947 -3.5641 -3.18055e-015 0 -1.59028e-015 -0.4882 -2.341 -0.6462 -0.0126371 0.00313858 0.00283865 -0.3575 -1.7167 -0.4742 -5.7311e-006 -3.9949e-006 -5.35489e-006 -1.42 -1.8761 1.4223 -3.18055e-015 0 -1.59028e-015 -1.1471 -3.4929 2.6334 -3.18055e-015 -6.36111e-015 1.59028e-015 -0.823 -2.3 1.6571 -1.59028e-015 3.18055e-015 1.59028e-015 -2.2603 21.606 7.4023 -3.31849 -4.57528 3.3109 -13.5187 -1.1334 -5.0155 -1.81291 2.6559 -16.1456 0.0994 -28.0499 -0.2431 32.654 -62.2461 24.6002 -0.0679 -23.3996 -0.1402 13.3801 9.46823 -2.72413 -0.7932 -9.0691 2.5189 1.76556e-031 -3.18055e-015 3.18055e-015 0.8272 -3.3923 0.5977 -7.95139e-016 0 1.59028e-015 0.565 -2.3158 0.4082 1.59028e-015 -3.18055e-015 3.18055e-015 -0.916 -9.2044 0.2193 1.76556e-031 -3.18055e-015 3.18055e-015 -0.0117 -4.1944 -0.0248 0.0129677 0.00231866 -8.66282e-005 -0.0071 -2.3249 -0.0142 2.38542e-015 0 -0 -0.6113 -8.7231 -2.0637 1.76556e-031 -3.18055e-015 3.18055e-015 0.1927 -3.8059 -0.2383 0.0163211 0.00303243 -0.000873253 0.1091 -2.1688 -0.1362 -1.59028e-015 6.36111e-015 -1.59028e-015 0.6151 -8.0947 -3.564 1.76556e-031 -3.18055e-015 3.18055e-015 0.4882 -2.341 -0.6462 0.0146285 0.0036952 -0.00327118 0.3574 -1.7166 -0.4742 -7.95139e-016 -3.18055e-015 -1.59028e-015 1.4199 -1.8761 1.4221 1.76556e-031 -3.18055e-015 3.18055e-015 1.1472 -3.4929 2.6336 -7.95139e-016 0 1.59028e-015 0.8229 -2.3 1.6571 1.59028e-015 -3.18055e-015 3.18055e-015 -9.412 3.9771 -0.7758 -83.1491 -64.1655 -119.873 -0.7531 -40.938 7.10543e-015 148.724 51.2938 -148.877 -7.10543e-015 -40.1986 1.42109e-014 -14.0719 7.91981 15.166 0 -4.4182 9.239 3.18055e-015 0 -1.59028e-015 9.4119 3.9773 -0.7758 75.8031 -65.8742 111.999 0.7532 -40.9383 -7.10543e-015 -131.799 55.2371 134.727 0 -40.1986 1.42109e-014 13.9423 8.2731 -15.7035 1.42109e-014 -4.4182 9.239 -4.58328e-006 6.06668e-006 -1.24183e-006 
-0.0299182 5.41766 79.1077 -180 -85.9956 -180 0 8.7983 -4.7612 -0.00285802 0.812622 -0.0890011 0 8.0291 0.4195 -0.0044541 1.62528 -0.177987 -6.9389e-018 9.9351 -2.2114 -0.00445415 1.62526 -0.177988 6.93889e-018 22.3885 -0.4656 -4.35927e-006 15.8045 1.88279e-005 -0.0001 12.643 3.4389 -8.42357e-008 -3.07363 3.88746e-009 2.2603 21.606 7.4023 -0.879482 -13.0336 -14.1368 13.5163 -1.1332 -5.0146 7.30395 0.619413 22.507 -0.0995 -28.05 -0.2431 -5.67216 -44.2838 -2.62909 0.0679 -23.3996 -0.1402 -16.6203 17.0543 7.25445 0.7932 -9.069 2.5189 -1.75082e-006 2.44464e-007 -7.17946e-007 -0.8272 -3.3923 0.5977 -1.59028e-015 0 3.18055e-015 -0.5649 -2.3158 0.4082 -2.96105e-006 1.05066e-005 -5.57575e-006 0.9159 -9.2044 0.2193 -1.75082e-006 2.44464e-007 -7.17946e-007 0.0117 -4.1944 -0.0248 -0.0128401 0.00234108 7.85992e-005 0.0071 -2.3249 -0.0142 -1.59028e-015 -3.18055e-015 -1.59028e-015 0.6113 -8.7231 -2.0637 -1.75082e-006 2.44464e-007 -7.17946e-007 -0.1927 -3.8059 -0.2383 -0.0160475 0.00300354 0.000863874 -0.1091 -2.1688 -0.1362 0 9.54166e-015 -0 -0.6151 -8.0947 -3.5641 -1.75082e-006 2.44464e-007 -7.17946e-007 -0.4882 -2.341 -0.6462 -0.012629 0.00314342 0.00282621 -0.3575 -1.7167 -0.4742 4.77083e-015 -3.18055e-015 -1.59028e-015 -1.42 -1.8761 1.4223 -1.75082e-006 2.44464e-007 -7.17946e-007 -1.1471 -3.4929 2.6334 -1.59028e-015 0 3.18055e-015 -0.823 -2.3 1.6571 -2.96105e-006 1.05066e-005 -5.57575e-006 -2.2603 21.606 7.4023 -3.20812 -4.81455 3.45866 -13.5187 -1.1334 -5.0155 -1.94982 2.51822 -16.1612 0.0994 -28.0499 -0.2431 32.0803 -61.9791 24.0634 -0.0679 -23.3996 -0.1402 13.3801 9.46822 -2.72412 -0.7932 -9.0691 2.5189 -7.95139e-016 -3.18055e-015 4.77083e-015 0.8272 -3.3923 0.5977 -0 0 3.18055e-015 0.565 -2.3158 0.4082 -7.95139e-016 0 4.77083e-015 -0.916 -9.2044 0.2193 -7.95139e-016 -3.18055e-015 4.77083e-015 -0.0117 -4.1944 -0.0248 0.0129293 0.00230847 -9.3727e-005 -0.0071 -2.3249 -0.0142 2.38542e-015 -6.36111e-015 -0 -0.6113 -8.7231 -2.0637 -7.95139e-016 -3.18055e-015 4.77083e-015 0.1927 -3.8059 -0.2383 0.016318 0.00303484 -0.000877634 0.1091 -2.1688 -0.1362 3.97569e-015 6.36111e-015 -0 0.6151 -8.0947 -3.564 -7.95139e-016 -3.18055e-015 4.77083e-015 0.4882 -2.341 -0.6462 0.0145883 0.00367913 -0.00327117 0.3574 -1.7166 -0.4742 0 6.36111e-015 -0 1.4199 -1.8761 1.4221 -7.95139e-016 -3.18055e-015 4.77083e-015 1.1472 -3.4929 2.6336 -0 0 3.18055e-015 0.8229 -2.3 1.6571 -7.95139e-016 0 4.77083e-015 -9.412 3.9771 -0.7758 -83.0324 -64.0161 -119.73 -0.7531 -40.938 0 148.383 51.5631 -148.576 -1.42109e-014 -40.1986 0 -14.0794 7.94021 15.1893 -1.42109e-014 -4.4182 9.239 -4.41391e-032 -1.59028e-015 -1.59028e-015 9.4119 3.9773 -0.7758 75.2914 -65.7988 111.501 0.7532 -40.9383 0 -131.191 55.3274 134.209 0 -40.1986 0 13.9397 8.28096 -15.721 -1.42109e-014 -4.4182 9.239 -3.18055e-015 1.19271e-014 3.18055e-015 
-0.0308519 5.41767 79.1076 -180 -85.9956 -180 3.46945e-018 8.7983 -4.7612 -0.00284563 0.802611 -0.0890454 6.93889e-018 8.0291 0.4195 -0.00444427 1.60524 -0.178077 -6.93889e-018 9.9351 -2.2114 -0.00444421 1.60523 -0.178077 0 22.3885 -0.4656 -1.5816e-005 16.4061 6.41349e-005 -0.0001 12.643 3.4389 1.26977e-008 -2.5977 3.95466e-009 2.2603 21.606 7.4023 -1.30273 -13.2013 -14.4488 13.5163 -1.1332 -5.0146 7.7005 0.585938 22.5448 -0.0995 -28.05 -0.2431 -5.39539 -44.0353 -2.41851 0.0679 -23.3996 -0.1402 -16.6203 17.0543 7.25445 0.7932 -9.069 2.5189 -1.59028e-015 -3.18055e-015 1.59028e-015 -0.8272 -3.3923 0.5977 -3.18055e-015 -3.18055e-015 -0 -0.5649 -2.3158 0.4082 -1.59028e-015 -3.18055e-015 1.59028e-015 0.9159 -9.2044 0.2193 -1.59028e-015 -3.18055e-015 1.59028e-015 0.0117 -4.1944 -0.0248 -0.0128335 0.00233511 8.83195e-005 0.0071 -2.3249 -0.0142 -1.59028e-015 -3.18055e-015 -1.59028e-015 0.6113 -8.7231 -2.0637 -1.59028e-015 -3.18055e-015 1.59028e-015 -0.1927 -3.8059 -0.2383 -0.0160245 0.00298497 0.000860968 -0.1091 -2.1688 -0.1362 4.77083e-015 6.36111e-015 1.59028e-015 -0.6151 -8.0947 -3.5641 -1.59028e-015 -3.18055e-015 1.59028e-015 -0.4882 -2.341 -0.6462 -0.0126115 0.00312552 0.00282877 -0.3575 -1.7167 -0.4742 -1.59028e-015 -9.54166e-015 -1.59028e-015 -1.42 -1.8761 1.4223 -1.59028e-015 -3.18055e-015 1.59028e-015 -1.1471 -3.4929 2.6334 -3.18055e-015 -3.18055e-015 -0 -0.823 -2.3 1.6571 -1.59028e-015 -3.18055e-015 1.59028e-015 -2.2603 21.606 7.4023 -3.0971 -5.05402 3.60696 -13.5187 -1.1334 -5.0155 -2.08679 2.38055 -16.1772 0.0994 -28.0499 -0.2431 31.517 -61.7096 23.5371 -0.0679 -23.3996 -0.1402 13.3801 9.46817 -2.7241 -0.7932 -9.0691 2.5189 2.38542e-015 -3.18055e-015 -1.59028e-015 0.8272 -3.3923 0.5977 7.95139e-016 -6.36111e-015 -0 0.565 -2.3158 0.4082 1.59028e-015 -3.18055e-015 1.59028e-015 -0.916 -9.2044 0.2193 2.38542e-015 -3.18055e-015 -1.59028e-015 -0.0117 -4.1944 -0.0248 0.0129599 0.00231855 -8.34187e-005 -0.0071 -2.3249 -0.0142 -1.59028e-015 2.22639e-014 4.77083e-015 -0.6113 -8.7231 -2.0637 2.38542e-015 -3.18055e-015 -1.59028e-015 0.1927 -3.8059 -0.2383 0.0163112 0.00303456 -0.000873794 0.1091 -2.1688 -0.1362 7.94503e-031 -9.54166e-015 4.77083e-015 0.6151 -8.0947 -3.564 2.38542e-015 -3.18055e-015 -1.59028e-015 0.4882 -2.341 -0.6462 0.0145559 0.00366867 -0.00325672 0.3574 -1.7166 -0.4742 -5.76386e-006 2.92366e-006 -5.11267e-006 1.4199 -1.8761 1.4221 2.38542e-015 -3.18055e-015 -1.59028e-015 1.1472 -3.4929 2.6336 7.95139e-016 -6.36111e-015 -0 0.8229 -2.3 1.6571 1.59028e-015 -3.18055e-015 1.59028e-015 -9.412 3.9771 -0.7758 -82.9164 -63.8668 -119.588 -0.7531 -40.938 0 148.037 51.8315 -148.272 0 -40.1986 0 -14.0868 7.96037 15.2123 1.42109e-014 -4.4182 9.239 -3.18055e-015 3.18055e-015 -0 9.4119 3.9773 -0.7758 74.7842 -65.7217 111.006 0.7532 -40.9383 0 -130.58 55.4145 133.689 -1.42109e-014 -40.1986 -1.42109e-014 13.9371 8.28877 -15.7385 0 -4.4182 9.239 9.54166e-015 -7.95139e-016 3.18055e-015 
